<svg width="100" height="100" viewBox="0 0 100 100" fill="none" xmlns="http://www.w3.org/2000/svg">
<g clip-path="url(#clip0_1196_620)">
<rect width="100" height="100"/>
<path fill-rule="evenodd" clip-rule="evenodd" d="M59.8335 49.9956L97.9592 88.1288C100.68 90.8493 100.68 95.2412 97.9595 97.9617C96.6019 99.3192 94.8262 100 93.0422 100C91.2588 100 89.4825 99.3189 88.125 97.9617L50 59.8282L11.8907 97.9456L11.888 97.9483C10.5164 99.3114 8.73705 99.9895 6.96776 99.9895C5.18423 99.9895 3.40802 99.3086 2.05055 97.9513C-0.671758 95.2291 -0.667662 90.8298 2.04771 88.1215L2.05087 88.1183L40.1656 49.9956L2.04055 11.8732C-0.681758 9.15104 -0.677662 4.75169 2.03771 2.04335L2.0434 2.03766C4.75205 -0.677646 9.15208 -0.681741 11.8745 2.0405L49.9995 40.1629L88.1245 2.0405C90.8454 -0.680168 95.2376 -0.680168 97.9585 2.04051L97.9613 2.04335C100.677 4.75169 100.681 9.15104 97.9585 11.8732L59.8335 49.9956Z" fill="#1E1E1E"/>
</g>
<defs>
<clipPath id="clip0_1196_620">
<rect width="100" height="100"/>
</clipPath>
</defs>
</svg>
