<?xml version="1.0" encoding="utf-8"?>
<!-- Generator: Adobe Illustrator 18.1.1, SVG Export Plug-In . SVG Version: 6.00 Build 0)  -->
<!DOCTYPE svg PUBLIC "-//W3C//DTD SVG 1.1//EN" "http://www.w3.org/Graphics/SVG/1.1/DTD/svg11.dtd">
<svg version="1.1" id="Layer_1" xmlns="http://www.w3.org/2000/svg" xmlns:xlink="http://www.w3.org/1999/xlink" x="0px" y="0px"
	 viewBox="48 0 696.1 359.1" enable-background="new 48 0 696.1 359.1" xml:space="preserve">
<path d="M191.1,337.1c38.8-63.2,61.1-145.9,61.1-190.7c0-50-21.9-72.4-64.9-72.4c-46.9,0-113.1,36.1-113.1,93.3
	c0,29.9,29.9,46.1,67,46.1c21.6,0,44.6-5.4,63.7-16l7.5,13.9c-13.7,10.8-41,20.9-73.7,20.9c-44.8,0-90.7-20.6-90.7-69.8
	c0-67,78.3-102.8,147.2-102.8c62.9,0,94.6,36.6,94.6,85.8c0,42-8.7,82.4-26.3,119.8l-49,59.8c25.5-38.4,141-200,260.3-325l16.5,13.1
	C375.8,140.3,282.3,261.6,219.9,352L191.1,337.1z M575.1,79.9c-12.4,21.1-34.8,64.4-51.3,95.1c-32.2,61.1-69.1,147.2-97.9,147.2
	c-15.2,0-24.5-12.9-24.5-34c0-109.8,118-266,250-266c34.8,0,52.3,16.2,52.3,43.8c0,71.9-108.7,76.6-166.5,94.6
	c-22.9,7.2-37.6,20.4-37.6,39.7c0,12.1,6.4,25.3,22.7,42.3C550.7,272,605,315,641.6,336.9l16.5-27.8
	c-37.1-24.5-96.4-66.5-122.2-94.8c-7.7-8.8-12.4-18-12.4-23.5c0-6.7,3.1-12.1,14.4-16.2c41.9-15.6,206.2-15.2,206.2-106.4
	c0-27.6-28.1-59-90.5-59C506.3,9,379,158,379,275.5c0,36.1,18.3,65.7,47.2,65.7c45.3,0,95.1-86.9,131.2-152.1
	c16.8-30.2,32-63.9,50-96.6L575.1,79.9z"/>
</svg>
